<?xml version="1.0" encoding="UTF-8"?>
<svg id="_Слой_1" data-name="Слой_1" xmlns="http://www.w3.org/2000/svg" version="1.1" viewBox="0 0 128 128">
  <!-- Generator: Adobe Illustrator 29.3.1, SVG Export Plug-In . SVG Version: 2.1.0 Build 151)  -->
  <defs>
    <style>
      .st0 {
        fill: #ef4444;
        stroke: #fff;
        stroke-width: 3px;
      }

      .st1 {
        fill: #a9c9dd;
      }

      .st2 {
        fill: #f1f5f9;
      }

      .st3 {
        fill: #c8daea;
      }

      .st4 {
        fill: #f6fbfe;
      }

      .st5 {
        fill: #37aee2;
      }
    </style>
  </defs>
  <circle class="st2" cx="64" cy="64" r="64"/>
  <circle class="st5" cx="64" cy="108.4" r="7.7"/>
  <path class="st5" d="M64,15.7c-18.6,0-34,15.5-34,34v19.3c0,5.9-2,11.4-5.4,15.9l-6.8,9c-2.2,2.8-.3,6.8,3.2,6.8h86c3.6,0,5.4-4,3.2-6.8l-6.8-9c-3.4-4.5-5.4-10-5.4-15.9v-19.3c0-18.6-15.5-34-34-34Z"/>
  <circle class="st0" cx="92.1" cy="24.6" r="8.9"/>
  <path class="st3" d="M57.2,86.1c-1.5,0-1.4-.6-1.8-2l-4.5-14.7,34.4-20.2"/>
  <path class="st1" d="M57.2,86.1c1,0,1.5-.6,2.2-1.1l6.3-6-7.9-4.8"/>
  <path class="st4" d="M57.9,74.1l19,13.9c2,1.3,3.7.6,4.2-2l7.7-36.2c.7-3.1-1.3-4.5-3.4-3.5l-45.1,17.4c-2.9,1.1-2.9,2.9-.6,3.7l11.7,3.7,26.7-17c1.3-.7,2.4-.4,1.5.6"/>
</svg>